<svg width="19" height="19" viewBox="0 0 19 19" fill="none" xmlns="http://www.w3.org/2000/svg">
<path d="M18.4486 17.4508L13.8139 12.8161C15.1128 11.3872 15.8014 9.50685 15.7325 7.57698C15.6635 5.6471 14.8425 3.82073 13.4449 2.48812C12.0473 1.15551 10.1839 0.422366 8.25298 0.445349C6.32201 0.468332 4.47661 1.24562 3.11112 2.61112C1.74562 3.97661 0.968332 5.82201 0.945349 7.75298C0.922366 9.68394 1.65551 11.5473 2.98812 12.9449C4.32073 14.3425 6.1471 15.1635 8.07698 15.2325C10.0068 15.3014 11.8872 14.6128 13.3161 13.3139L17.9508 17.9486C18.0168 18.0146 18.1063 18.0516 18.1997 18.0516C18.293 18.0516 18.3825 18.0146 18.4486 17.9486C18.5146 17.8825 18.5516 17.793 18.5516 17.6997C18.5516 17.6063 18.5146 17.5168 18.4486 17.4508ZM1.666 7.84982C1.666 6.52789 2.058 5.23564 2.79243 4.13649C3.52686 3.03734 4.57073 2.18066 5.79204 1.67478C7.01334 1.16889 8.35724 1.03653 9.65377 1.29443C10.9503 1.55233 12.1413 2.1889 13.076 3.12365C14.0108 4.0584 14.6473 5.24934 14.9052 6.54587C15.1631 7.84241 15.0308 9.1863 14.5249 10.4076C14.019 11.6289 13.1623 12.6728 12.0632 13.4072C10.964 14.1416 9.67176 14.5336 8.34982 14.5336C6.57774 14.5318 4.87876 13.827 3.6257 12.5739C2.37265 11.3209 1.66786 9.62191 1.666 7.84982Z" fill="#858585"/>
</svg>
